<svg xmlns="http://www.w3.org/2000/svg" width="256" height="256" viewBox="0 0 256 256"><circle cx="128.1" cy="134" r="115.9" fill="#174971"/><path fill="#a16e3f" d="M6.9 94.4l81.6-11.5 36.8-73.7 36.2 74L243 95.4l-59.3 57.3 13.6 81.3-72.7-38.7-73.1 38.1 14.2-81.2L6.9 94.4z"/><path fill="#56872c" d="M222.7 78.3c.1.2 0 .4-.2.4a35.1 35.1 0 0 0-12.6 4 33.8 33.8 0 0 0-15.5 17.8 34.8 34.8 0 0 0 .6 25.2c.1.2 0 .3-.2.3a32.7 32.7 0 0 0-14.7 5.9 33.1 33.1 0 0 0-9.4 10.3c-1 1.8-2.5 3.8-4.8 2.8s-2.3-1.4-3.5-2.1l-3.7-2.1a124.5 124.5 0 0 0-28.7-11.4h-.5a.2.2 0 0 1-.1-.4 2.4 2.4 0 0 0 .9-1.1 5.2 5.2 0 0 1 1-1.1l3.2-4.4a39.9 39.9 0 0 0 6.6-26.2c0-.3.2-.3.4-.2a14.8 14.8 0 0 0 11.4 2.7c7.3-1.3 13-7.1 16.4-13.3a33.2 33.2 0 0 0 3.4-21.2.3.3 0 0 1 .3-.3 39.1 39.1 0 0 0 9.7 1.2 44.4 44.4 0 0 0 16.9-3.1 42.6 42.6 0 0 0 14.6-9.4c.2-.1.4 0 .4.2.1 2 .4 4 .7 6a56.3 56.3 0 0 0 7.4 19.5zm-.5 0c-1-1.7-1.9-3.3-2.7-5a56 56 0 0 1-5.2-18.8c-.4.9-.9 1.7-1.3 2.6a194.3 194.3 0 0 1-11.7 20.3A141.6 141.6 0 0 1 187 95.9a122.8 122.8 0 0 1-16.8 15.4 102.2 102.2 0 0 1-19.4 11.5 91.6 91.6 0 0 1-19.8 6.4 121.6 121.6 0 0 1 14.4 4.8 135.5 135.5 0 0 1 14.9 7.1l3.7 2.2c1.1.6 2.4 1.8 3.7 1.5s1.8-1.4 2.4-2.3a28.2 28.2 0 0 1 1.8-2.9 33.5 33.5 0 0 1 22.6-14 35.2 35.2 0 0 1-2.6-14 34.2 34.2 0 0 1 9.4-22.9 35.1 35.1 0 0 1 20.9-10.4zm-7.9-23.9a4.5 4.5 0 0 1-.1-1.1 52.9 52.9 0 0 1-7.5 5.7 45.7 45.7 0 0 1-16.4 6 42.8 42.8 0 0 1-17.1-.6 31.3 31.3 0 0 1-.3 12.2c-1.5 7.3-5.5 14.3-11.5 18.7a18.2 18.2 0 0 1-10.2 4 14.2 14.2 0 0 1-9.6-2.7 47 47 0 0 1 0 7.5 40.2 40.2 0 0 1-10 22.6h.1a.4.4 0 0 1-.1.3 3.1 3.1 0 0 0-.9 1.1l-.5.7 1.8-.4a87.2 87.2 0 0 0 21.2-7.3 110.6 110.6 0 0 0 19-12 123.3 123.3 0 0 0 16.5-15.8 151.1 151.1 0 0 0 13.9-18.7 192.6 192.6 0 0 0 11.3-20.4.2.2 0 0 1 .4.2z"/><path fill="#9cbc3b" d="M219.5 73.3c.8 1.7 1.7 3.3 2.7 5a35.1 35.1 0 0 0-20.9 10.4 34.2 34.2 0 0 0-9.4 22.9 35.2 35.2 0 0 0 2.6 14 33.5 33.5 0 0 0-22.6 14 28.2 28.2 0 0 0-1.8 2.9c-.6.9-1.3 2-2.4 2.3s-2.6-.9-3.7-1.5l-3.7-2.2a135.5 135.5 0 0 0-14.9-7.1 121.6 121.6 0 0 0-14.4-4.8 91.6 91.6 0 0 0 19.8-6.4 102.2 102.2 0 0 0 19.4-11.5A122.8 122.8 0 0 0 187 95.9a141.6 141.6 0 0 0 14.3-18.4A194.3 194.3 0 0 0 213 57.2c.4-.9.9-1.7 1.3-2.6a56 56 0 0 0 5.2 18.7z"/><path fill="#56872c" d="M214.2 53.3a4.5 4.5 0 0 0 .1 1.1.2.2 0 0 0-.4-.1 192.6 192.6 0 0 1-11.3 20.4 151.1 151.1 0 0 1-13.9 18.7 123.3 123.3 0 0 1-16.5 15.8 110.6 110.6 0 0 1-19 12 87.2 87.2 0 0 1-21.2 7.3l-1.8.4.5-.7a3.1 3.1 0 0 1 .9-1.1.4.4 0 0 0 .1-.3h-.1a40.2 40.2 0 0 0 10-22.6 47 47 0 0 0 0-7.5 14.2 14.2 0 0 0 9.6 2.7 18.2 18.2 0 0 0 10.2-4c6-4.4 10-11.4 11.5-18.7a31.3 31.3 0 0 0 .3-12.2 42.8 42.8 0 0 0 17.1.6 45.7 45.7 0 0 0 16.4-6 52.9 52.9 0 0 0 7.5-5.8zM38.6 101.8a.2.2 0 0 0 .2.2 26.8 26.8 0 0 1 10.9.7 26.9 26.9 0 0 1 15.8 11 27.9 27.9 0 0 1 4.6 20c0 .2.1.3.2.2a27 27 0 0 1 12.9 1.7 27.7 27.7 0 0 1 9.5 6.3c1.1 1.2 2.7 2.5 4.3 1.2a17.3 17.3 0 0 0 2.4-2.3l2.5-2.4a107.4 107.4 0 0 1 20.5-14.9h.4c.1-.1.1-.3 0-.3l-1-.7a3.9 3.9 0 0 0-1-.8l-3.4-2.8a32.2 32.2 0 0 1-10.5-19.4c0-.2-.3-.2-.3-.1a11.7 11.7 0 0 1-8.6 4.4c-6 .5-11.7-2.9-15.6-7.2a26.2 26.2 0 0 1-7-16.1c0-.1-.1-.2-.3-.1a36.7 36.7 0 0 1-7.4 2.9 37.2 37.2 0 0 1-14.1.9 35.5 35.5 0 0 1-13.4-4.5c-.2-.1-.3 0-.3.2a41 41 0 0 1 .6 4.9 44.6 44.6 0 0 1-1.9 17zm.4-.2a37.4 37.4 0 0 0 1.2-4.5 47.1 47.1 0 0 0 .3-15.9l1.6 1.8a172 172 0 0 0 13.3 13.8 120.8 120.8 0 0 0 15 11.7 103.5 103.5 0 0 0 16.4 8.8 79.7 79.7 0 0 0 17.7 5.2 74.4 74.4 0 0 0 17 1.1 114.8 114.8 0 0 0-10.4 6.7 122.8 122.8 0 0 0-10.4 8.7l-2.5 2.4c-.7.8-1.5 2-2.6 1.9a3.8 3.8 0 0 1-2.4-1.3 18 18 0 0 0-2-1.9 27 27 0 0 0-20.7-6.5 28.3 28.3 0 0 0-.7-11.6 27.5 27.5 0 0 0-12.2-16.3 28.8 28.8 0 0 0-18.6-4.1zm1.5-20.5c-.1-.3-.1-.6-.2-.9a31.5 31.5 0 0 0 7.1 3 38.1 38.1 0 0 0 14.2 1.5 35.6 35.6 0 0 0 13.5-3.9 25 25 0 0 0 2.6 9.6 25.3 25.3 0 0 0 12.9 12.5 15.1 15.1 0 0 0 8.9 1.1 12.1 12.1 0 0 0 7.1-4 31.9 31.9 0 0 0 1.5 5.9 33.2 33.2 0 0 0 12.5 15.9h-.1c0 .1.1.2.1.3a2.3 2.3 0 0 1 1 .7l.5.4h-1.5a70.1 70.1 0 0 1-18.3-1.6 82.4 82.4 0 0 1-17.4-5.6 104.2 104.2 0 0 1-16.3-9.1 130.3 130.3 0 0 1-14.8-12.1 169.6 169.6 0 0 1-13-13.8.2.2 0 0 0-.3.1z"/><path fill="#9cbc3b" d="M40.2 97.1a37.4 37.4 0 0 1-1.2 4.5 28.8 28.8 0 0 1 18.6 4.1A27.5 27.5 0 0 1 69.8 122a28.3 28.3 0 0 1 .7 11.6 27 27 0 0 1 20.7 6.5 18 18 0 0 1 2 1.9 3.8 3.8 0 0 0 2.4 1.3c1.1.1 1.9-1.1 2.6-1.9l2.5-2.4a122.8 122.8 0 0 1 10.4-8.7 114.8 114.8 0 0 1 10.4-6.7 74.4 74.4 0 0 1-17-1.1 79.7 79.7 0 0 1-17.7-5.2 103.5 103.5 0 0 1-16.4-8.8 120.8 120.8 0 0 1-15-11.7 172 172 0 0 1-13.3-13.7l-1.6-1.8a47.1 47.1 0 0 1-.3 15.8z"/><path fill="#56872c" d="M40.3 80.2c.1.3.1.6.2.9a.2.2 0 0 1 .3-.1 169.6 169.6 0 0 0 13 13.8 130.3 130.3 0 0 0 14.8 12.1 104.2 104.2 0 0 0 16.3 9.1 82.4 82.4 0 0 0 17.4 5.7 70.1 70.1 0 0 0 18.3 1.6h1.5l-.5-.4a2.3 2.3 0 0 0-1-.7c0-.1-.1-.2-.1-.3h.1a33.2 33.2 0 0 1-12.5-15.9 31.9 31.9 0 0 1-1.5-5.9 12.1 12.1 0 0 1-7.1 4 15.1 15.1 0 0 1-8.9-1.1 25.3 25.3 0 0 1-12.9-12.6 25 25 0 0 1-2.6-9.6 35.6 35.6 0 0 1-13.5 3.9 38.1 38.1 0 0 1-14.2-1.5 31.5 31.5 0 0 1-7.1-3zm104 141.3a.2.2 0 0 1-.2-.2 31.2 31.2 0 0 0-.4-11.4 29.1 29.1 0 0 0-32-22.1.3.3 0 0 1-.3-.3 27.8 27.8 0 0 0-1.4-13.4 28.9 28.9 0 0 0-6.4-10.1c-1.3-1.2-2.6-2.9-1.2-4.6s1.7-1.6 2.5-2.4a31.9 31.9 0 0 0 2.6-2.6 109 109 0 0 0 16-21v-.5h.1c0-.1.3-.1.3.1a2.3 2.3 0 0 0 .7 1 2.6 2.6 0 0 1 .7 1.1c1.2 1.4 2.6 3.1 2.9 3.6a33.9 33.9 0 0 0 20.1 11.4c.2 0 .2.3.1.4a11.9 11.9 0 0 0-4.8 8.8c-.7 6.3 2.8 12.4 7.2 16.6a28 28 0 0 0 16.6 7.6c.2 0 .3.1.2.3a30.6 30.6 0 0 0-3.2 7.7 38.5 38.5 0 0 0-1.3 14.7 37.9 37.9 0 0 0 4.4 14.2c.1.1-.1.3-.2.2a51.9 51.9 0 0 0-23 .9zm.2-.5a37.1 37.1 0 0 1 4.8-1 46.3 46.3 0 0 1 16.6 0h-.1l-1.8-1.7a158.6 158.6 0 0 1-14.1-14.3 131.7 131.7 0 0 1-11.9-15.9 109.3 109.3 0 0 1-8.8-17.4 93.3 93.3 0 0 1-5.1-18.6 81.7 81.7 0 0 1-.7-17.8 111.1 111.1 0 0 1-7.2 10.7 117.5 117.5 0 0 1-9.3 10.6l-2.7 2.6c-.7.7-2 1.6-2 2.8a3.8 3.8 0 0 0 1.3 2.4l2 2.1a28.9 28.9 0 0 1 6.3 21.9 30.8 30.8 0 0 1 12.1 1 29.7 29.7 0 0 1 16.8 13.1 30.1 30.1 0 0 1 3.8 19.5zm21.5-1l.9.2a52.1 52.1 0 0 1-3-7.4 42.2 42.2 0 0 1-1.2-15 38.2 38.2 0 0 1 4.4-14 26.8 26.8 0 0 1-10-2.9 27.7 27.7 0 0 1-12.8-13.8 16.8 16.8 0 0 1-.9-9.4 12.6 12.6 0 0 1 4.4-7.3 30.5 30.5 0 0 1-6.1-1.7 33.7 33.7 0 0 1-16.4-13.4h-.1c-.1.1-.2 0-.2-.1a8.6 8.6 0 0 0-.7-1l-.5-.5a9.2 9.2 0 0 1-.1 1.6 76.5 76.5 0 0 0 1.2 19.1 90.9 90.9 0 0 0 5.6 18.4 105.4 105.4 0 0 0 9.2 17.2 132 132 0 0 0 12.2 15.7 170.4 170.4 0 0 0 14.2 14 .2.2 0 0 1-.1.3z"/><path fill="#9cbc3b" d="M149.3 220a37.1 37.1 0 0 0-4.8 1 30.1 30.1 0 0 0-3.8-19.5 29.7 29.7 0 0 0-16.8-13.1 30.8 30.8 0 0 0-12.1-1 28.9 28.9 0 0 0-6.3-21.9l-2-2.1a3.8 3.8 0 0 1-1.3-2.4c0-1.2 1.3-2.1 2-2.8l2.7-2.6a117.5 117.5 0 0 0 9.3-10.6 111.1 111.1 0 0 0 7.2-10.7 81.7 81.7 0 0 0 .7 17.8 93.3 93.3 0 0 0 5.1 18.6 109.3 109.3 0 0 0 8.8 17.4 131.7 131.7 0 0 0 11.9 15.9 158.6 158.6 0 0 0 14.1 14.3l1.8 1.7h.1a46.3 46.3 0 0 0-16.6 0z"/><path fill="#56872c" d="M166.9 220.2l-.9-.2a.2.2 0 0 0 .1-.3 170.4 170.4 0 0 1-14.2-14 132 132 0 0 1-12.2-15.7 105.4 105.4 0 0 1-9.2-17.2 90.9 90.9 0 0 1-5.6-18.4 76.5 76.5 0 0 1-1.2-19.1 9.2 9.2 0 0 0 .1-1.6l.5.5a8.6 8.6 0 0 1 .7 1c0 .1.1.2.2.1h.1a33.7 33.7 0 0 0 16.4 13.4 30.5 30.5 0 0 0 6.1 1.7 12.6 12.6 0 0 0-4.4 7.3 16.8 16.8 0 0 0 .9 9.4 27.7 27.7 0 0 0 12.8 13.8 26.8 26.8 0 0 0 10 2.9 38.2 38.2 0 0 0-4.4 14 42.2 42.2 0 0 0 1.2 15 52.1 52.1 0 0 0 3 7.4z"/><circle cx="115.2" cy="127.2" r="11.9" fill="#89111f"/><circle cx="117" cy="127.8" r="10.1" fill="#cb161d"/><circle cx="125.3" cy="137.2" r="11.9" fill="#89111f"/><circle cx="127.1" cy="137.8" r="10.1" fill="#cb161d"/><circle cx="133.1" cy="121.9" r="8.8" fill="#89111f"/><circle cx="134.5" cy="122.4" r="7.5" fill="#cb161d"/></svg>