<svg enable-background="new 0 0 196 196" viewBox="0 0 196 196" xmlns="http://www.w3.org/2000/svg"><circle cx="97.6" cy="98.2" fill="#174971" r="95.2"/><path d="m1.8 76.1 65.9-9.3 29.6-59.5 29.2 59.7 65.8 9.8-47.9 46.2 11 65.6-58.7-31.2-59 30.7 11.5-65.5z" fill="#a16e3f"/><path d="m175.4 57.4c.1.2 0 .3-.2.3-3.6.4-7.1 1.5-10.4 3.3-5.9 3.2-10.4 8.4-12.7 14.6-2.4 6.7-2.3 14.1.5 20.7.1.2 0 .2-.2.2-4.4.6-8.5 2.3-12.1 4.8-3.1 2.2-5.8 5.1-7.7 8.5-.8 1.5-2.1 3.1-3.9 2.3-1.9-.8-1.9-1.2-2.9-1.7l-3-1.7c-7.4-4.1-15.4-7.2-23.6-9.4h-.4c-.1 0-.2 0-.2-.1s0-.2.1-.2c.3-.2.6-.5.7-.9.2-.3.5-.6.8-.9l2.6-3.6c4.3-6.3 6.2-13.9 5.4-21.5 0-.2.2-.2.3-.2 2.7 2 6.1 2.8 9.4 2.2 6-1.1 10.7-5.8 13.5-10.9 2.8-5.3 3.8-11.5 2.8-17.4 0-.1.1-.2.2-.2 2.6.7 5.3 1 8 1 4.8.1 9.5-.8 13.9-2.5 4.5-1.7 8.6-4.4 12-7.7.2-.1.3 0 .3.2.1 1.6.3 3.3.6 4.9 1.1 5.6 3.2 11 6.2 15.9zm-.4 0c-.8-1.4-1.6-2.7-2.2-4.1-2.3-4.9-3.8-10.1-4.3-15.4-.3.7-.7 1.4-1.1 2.1-2.9 5.7-6.1 11.3-9.6 16.7s-7.4 10.5-11.8 15.2c-4.2 4.6-8.8 8.9-13.8 12.7-4.9 3.7-10.3 6.9-15.9 9.5-5.2 2.4-10.7 4.1-16.3 5.3 4 1.1 8 2.4 11.8 3.9 4.2 1.7 8.3 3.6 12.2 5.8l3 1.8c.9.5 2 1.5 3 1.2s1.5-1.2 2-1.9c.4-.8.9-1.6 1.5-2.4 4.3-6.2 11.1-10.4 18.6-11.5-1.5-3.6-2.2-7.6-2.1-11.5.1-7 2.9-13.7 7.7-18.8 4.7-4.7 10.7-7.8 17.3-8.6zm-6.5-19.6c-.1-.3-.1-.6-.1-.9-1.9 1.7-4 3.3-6.2 4.7-4.1 2.5-8.7 4.2-13.5 4.9-4.7.8-9.4.6-14.1-.5.6 3.3.5 6.7-.2 10-1.2 6-4.5 11.8-9.5 15.4-2.4 1.9-5.3 3.1-8.4 3.3-2.8.2-5.6-.5-7.9-2.2.2 2.1.2 4.1 0 6.2-.7 6.9-3.6 13.4-8.2 18.6h.1c0 .1 0 .2-.1.2-.3.2-.6.5-.7.9l-.4.6 1.5-.3c6-1.2 11.9-3.3 17.4-6s10.8-6.1 15.6-9.9c4.9-3.9 9.5-8.2 13.6-13 4.2-4.8 8-10 11.4-15.4s6.5-11 9.3-16.8c0-.1.2-.1.2-.1.2.1.2.2.2.3z" fill="#56872c"/><path d="m172.7 53.3c.7 1.4 1.4 2.7 2.2 4.1-6.5.8-12.6 3.8-17.2 8.5-4.8 5.1-7.6 11.8-7.7 18.8-.1 3.9.6 7.9 2.1 11.5-7.5 1.1-14.2 5.3-18.6 11.5-.5.8-1 1.6-1.5 2.4-.5.7-1.1 1.6-2 1.9s-2.1-.7-3-1.2l-3-1.8c-4-2.2-8-4.1-12.2-5.8-3.9-1.6-7.8-2.9-11.8-3.9 5.6-1.1 11.1-2.9 16.3-5.3 5.6-2.6 11-5.7 15.9-9.5 5-3.8 9.6-8 13.8-12.7 4.3-4.7 8.3-9.8 11.8-15.1 3.5-5.4 6.7-10.9 9.6-16.7.3-.7.7-1.4 1.1-2.1.5 5.4 1.9 10.6 4.2 15.4z" fill="#9cbc3b"/><path d="m168.4 36.9c0 .3 0 .6.1.9 0-.1 0-.2-.1-.2s-.2 0-.2.1c-2.8 5.8-5.9 11.4-9.3 16.8s-7.2 10.5-11.4 15.4c-4.1 4.7-8.6 9.1-13.6 13-4.9 3.8-10.1 7.1-15.6 9.9-5.5 2.7-11.4 4.8-17.4 6l-1.5.2.4-.6c.2-.4.4-.7.7-.9.1-.1.1-.2.1-.2h-.1c4.6-5.2 7.5-11.7 8.2-18.6.2-2.1.2-4.1 0-6.2 2.3 1.7 5.1 2.5 7.9 2.2 3.1-.2 6-1.4 8.4-3.3 4.9-3.6 8.2-9.4 9.5-15.4.7-3.3.8-6.7.2-10 4.6 1.1 9.4 1.3 14.1.5 4.8-.8 9.3-2.4 13.5-4.9 2.1-1.3 4.2-2.9 6.1-4.7zm-144.3 39.8c0 .1.1.2.2.2 3-.4 6-.2 9 .6 5.3 1.3 9.9 4.5 13 9 3.3 4.8 4.7 10.7 3.8 16.4 0 .2.1.2.2.2 3.6-.4 7.2.1 10.6 1.4 2.9 1.2 5.6 2.9 7.8 5.2.9 1 2.2 2.1 3.5 1 .7-.6 1.4-1.2 2-1.9l2.1-2c5.1-4.7 10.8-8.8 16.8-12.2h.3c.1-.1.1-.2 0-.2l-.8-.6c-.2-.3-.5-.5-.8-.7l-2.8-2.3c-4.7-4.1-7.7-9.8-8.6-15.9 0-.2-.2-.2-.2-.1-1.7 2.2-4.3 3.5-7.1 3.6-4.9.4-9.6-2.4-12.8-5.9-3.4-3.6-5.4-8.3-5.8-13.2 0-.1-.1-.2-.2-.1-1.9 1-4 1.8-6.1 2.4-3.8 1-7.7 1.2-11.6.7s-7.6-1.7-11-3.7c-.2-.1-.2 0-.2.2.2 1.3.4 2.7.5 4 .1 4.7-.4 9.4-1.8 13.9zm.3-.1c.4-1.2.7-2.4 1-3.7.8-4.3.9-8.7.2-13.1l1.3 1.5c3.4 4 7.1 7.8 10.9 11.3s8 6.7 12.3 9.6c4.3 2.8 8.8 5.2 13.5 7.2s9.5 3.4 14.5 4.3c4.6.8 9.3 1.1 14 .9-2.9 1.7-5.8 3.5-8.5 5.5-3 2.2-5.8 4.6-8.5 7.1l-2.1 2c-.6.7-1.2 1.6-2.1 1.6-.8-.1-1.5-.5-2-1.1s-1.1-1.1-1.6-1.6c-4.7-4.1-10.8-6-17-5.3.5-3.2.3-6.4-.6-9.5-1.5-5.6-5.1-10.4-10-13.4-4.6-2.8-10-4-15.3-3.3zm1.2-16.9c-.1-.2-.1-.5-.2-.7 1.8 1.1 3.8 1.9 5.8 2.5 3.9 1.1 7.8 1.5 11.8 1.2 3.9-.3 7.6-1.4 11.1-3.2.2 2.7.9 5.4 2.1 7.9 2.2 4.6 5.9 8.3 10.6 10.3 2.3 1 4.8 1.4 7.3.9 2.3-.4 4.3-1.5 5.8-3.3.3 1.7.7 3.3 1.2 4.8 2 5.3 5.6 9.9 10.3 13.1h-.1c0 .1.1.2.1.2.3.1.6.3.8.6l.4.3h-1.2c-5 .2-10.1-.2-15-1.3-4.9-1-9.7-2.5-14.3-4.6-4.7-2.1-9.2-4.6-13.4-7.5-4.3-3-8.4-6.3-12.2-9.9s-7.3-7.4-10.7-11.3c0-.1-.1-.1-.2 0z" fill="#56872c"/><path d="m25.4 72.9c-.3 1.3-.6 2.5-1 3.7 5.3-.6 10.7.5 15.3 3.4 4.9 3 8.5 7.8 10 13.4.8 3.1 1 6.3.6 9.5 6.2-.7 12.3 1.3 17 5.3.6.5 1.1 1 1.6 1.6s1.2 1 2 1.1c.9.1 1.6-.9 2.1-1.6l2.1-2c2.7-2.5 5.6-4.9 8.5-7.1 2.7-2 5.6-3.8 8.5-5.5-4.7.2-9.4-.1-14-.9-5-.9-9.9-2.3-14.5-4.3-4.7-2-9.2-4.4-13.5-7.2-4.4-2.9-8.5-6.1-12.3-9.6-3.8-3.6-7.4-7.4-10.8-11.3l-1.3-1.5c.6 4.3.5 8.7-.3 13z" fill="#9cbc3b"/><path d="m25.5 59c.1.2.1.5.2.7 0-.1.1-.1.2-.1 3.3 4 6.9 7.8 10.7 11.3 3.8 3.6 7.9 6.9 12.2 9.9 4.2 2.9 8.7 5.4 13.4 7.5 4.6 2.1 9.4 3.7 14.3 4.7 4.9 1.1 10 1.5 15 1.3h1.2l-.4-.3c-.2-.3-.5-.5-.8-.6 0-.1-.1-.2-.1-.2h.1c-4.7-3.2-8.3-7.7-10.3-13.1-.6-1.6-1-3.2-1.2-4.8-1.5 1.7-3.6 2.9-5.8 3.3-2.5.4-5 .1-7.3-.9-4.7-2-8.5-5.7-10.6-10.4-1.2-2.5-2-5.1-2.1-7.9-3.4 1.8-7.2 2.9-11.1 3.2s-7.9-.1-11.7-1.2c-2.1-.5-4.1-1.3-5.9-2.4zm85.4 116.1c-.1 0-.2-.1-.2-.2.5-3.1.4-6.3-.3-9.4-2.8-11.9-14.2-19.7-26.3-18.2-.1 0-.2-.1-.2-.2.5-3.7.1-7.5-1.2-11-1.2-3.1-2.9-5.9-5.3-8.3-1.1-1-2.1-2.4-1-3.8 1.2-1.4 1.4-1.3 2.1-2 .8-.7 1.5-1.4 2.1-2.1 5.1-5.2 9.5-11 13.1-17.3v-.4h.1c0-.1.2-.1.2.1.1.3.3.6.6.8s.5.6.6.9c1 1.2 2.1 2.5 2.4 3 4.2 5 10.1 8.3 16.5 9.4.2 0 .2.2.1.3-2.3 1.7-3.8 4.4-3.9 7.2-.6 5.2 2.3 10.2 5.9 13.6 3.7 3.5 8.5 5.7 13.6 6.2.2 0 .2.1.2.2-1.2 2-2 4.1-2.6 6.3-1.1 3.9-1.5 8-1.1 12.1s1.7 8.1 3.6 11.7c.1.1-.1.2-.2.2-6.1-1-12.6-.7-18.8.9zm.2-.4c1.3-.4 2.6-.6 3.9-.8 4.5-.8 9.1-.8 13.6 0h-.1l-1.5-1.4c-4.1-3.7-8-7.6-11.6-11.8-3.6-4.1-6.9-8.5-9.8-13.1-2.8-4.5-5.3-9.3-7.2-14.3-1.9-4.9-3.3-10.1-4.2-15.3-.7-4.8-.9-9.7-.6-14.6-1.8 3-3.8 6-5.9 8.8-2.4 3.1-4.9 6-7.6 8.7l-2.2 2.1c-.6.6-1.6 1.3-1.6 2.3.1.8.5 1.5 1.1 2l1.6 1.7c4.1 5 6 11.5 5.2 18 3.3-.4 6.7-.1 9.9.8 5.8 1.8 10.7 5.6 13.8 10.8 2.9 4.9 4 10.6 3.2 16.1zm17.7-.8.7.2c-1-2-1.8-4-2.5-6.1-1.1-4-1.4-8.2-1-12.3.5-4 1.7-7.9 3.6-11.5-2.9-.2-5.7-1.1-8.2-2.4-4.7-2.4-8.4-6.4-10.5-11.3-1-2.5-1.2-5.1-.7-7.7.5-2.4 1.8-4.5 3.6-6-1.7-.3-3.4-.8-5-1.4-5.6-2.1-10.3-6-13.5-11h-.1c-.1.1-.2 0-.2-.1-.2-.3-.4-.6-.6-.8l-.4-.4c0 .4 0 .9-.1 1.3-.3 5.3 0 10.5 1 15.7s2.5 10.3 4.6 15.1c2.1 4.9 4.6 9.7 7.6 14.1 3 4.5 6.4 8.9 10 12.9 3.7 4.1 7.6 7.9 11.7 11.5.1 0 .1.1 0 .2z" fill="#56872c"/><path d="m115 173.9c-1.3.2-2.6.5-3.9.8.8-5.5-.3-11.2-3.1-16-3.1-5.2-8-9-13.8-10.8-3.2-.9-6.6-1.2-9.9-.8.8-6.5-1.1-13-5.2-18l-1.6-1.7c-.6-.5-1-1.2-1.1-2 0-1 1.1-1.7 1.6-2.3l2.2-2.1c2.7-2.7 5.3-5.7 7.6-8.7 2.1-2.8 4.1-5.7 5.9-8.8-.3 4.9-.1 9.8.6 14.6.9 5.2 2.3 10.3 4.2 15.3 2 5 4.4 9.8 7.2 14.3 2.9 4.6 6.2 9 9.8 13.1 3.6 4.2 7.5 8.1 11.6 11.8l1.5 1.4h.1c-4.5-.9-9.1-.9-13.7-.1z" fill="#9cbc3b"/><path d="m129.5 174-.7-.2c.1 0 .1-.1.1-.2-4.1-3.6-8-7.4-11.7-11.5-3.7-4-7-8.4-10-12.9s-5.5-9.2-7.6-14.1-3.6-9.9-4.6-15.1-1.3-10.4-1-15.7c.1-.4.1-.9.1-1.3l.4.4c.2.3.4.5.6.8 0 .1.1.2.2.1h.1c3.2 5 7.9 8.9 13.5 11 1.6.6 3.3 1.1 5 1.4-1.9 1.5-3.1 3.6-3.6 6-.5 2.6-.2 5.3.7 7.7 2.1 4.9 5.8 8.9 10.5 11.3 2.6 1.3 5.3 2.1 8.2 2.4-1.9 3.6-3.2 7.5-3.6 11.5-.4 4.1-.1 8.3 1 12.3.6 2.2 1.4 4.2 2.4 6.1z" fill="#56872c"/><circle cx="87" cy="97.6" fill="#89111f" r="9.8"/><circle cx="88.5" cy="98.1" fill="#cb161d" r="8.3"/><circle cx="95.3" cy="105.8" fill="#89111f" r="9.8"/><circle cx="96.8" cy="106.3" fill="#cb161d" r="8.3"/><circle cx="101.7" cy="93.3" fill="#89111f" r="7.2"/><circle cx="102.9" cy="93.7" fill="#cb161d" r="6.2"/></svg>