<?xml version="1.0" encoding="utf-8"?>
<!-- Generator: Adobe Illustrator 24.0.3, SVG Export Plug-In . SVG Version: 6.00 Build 0)  -->
<svg version="1.1" id="Layer_1" xmlns="http://www.w3.org/2000/svg" xmlns:xlink="http://www.w3.org/1999/xlink" x="0px" y="0px"
	 viewBox="0 0 196 196" style="enable-background:new 0 0 196 196;" xml:space="preserve">
<style type="text/css">
	.st0{fill:#174971;}
	.st1{fill:#A16E3F;}
	.st2{fill:#56872C;}
	.st3{fill:#9CBC3B;}
	.st4{fill:#89111F;}
	.st5{fill:#CB161D;}
</style>
<circle class="st0" cx="97.6" cy="98.2" r="95.2"/>
<path class="st1" d="M1.8,76.1l65.9-9.3L97.3,7.3L126.5,67l65.8,9.8l-47.9,46.2l11,65.6l-58.7-31.2l-59,30.7l11.5-65.5L1.8,76.1z"/>
<path class="st2" d="M175.4,57.4c0.1,0.2,0,0.3-0.2,0.3c-3.6,0.4-7.1,1.5-10.4,3.3c-5.9,3.2-10.4,8.4-12.7,14.6
	c-2.4,6.7-2.3,14.1,0.5,20.7c0.1,0.2,0,0.2-0.2,0.2c-4.4,0.6-8.5,2.3-12.1,4.8c-3.1,2.2-5.8,5.1-7.7,8.5c-0.8,1.5-2.1,3.1-3.9,2.3
	c-1.9-0.8-1.9-1.2-2.9-1.7l-3-1.7c-7.4-4.1-15.4-7.2-23.6-9.4h-0.4c-0.1,0-0.2,0-0.2-0.1s0-0.2,0.1-0.2l0,0c0.3-0.2,0.6-0.5,0.7-0.9
	c0.2-0.3,0.5-0.6,0.8-0.9l2.6-3.6c4.3-6.3,6.2-13.9,5.4-21.5c0-0.2,0.2-0.2,0.3-0.2c2.7,2,6.1,2.8,9.4,2.2c6-1.1,10.7-5.8,13.5-10.9
	c2.8-5.3,3.8-11.5,2.8-17.4c0-0.1,0.1-0.2,0.2-0.2l0,0c2.6,0.7,5.3,1,8,1c4.8,0.1,9.5-0.8,13.9-2.5c4.5-1.7,8.6-4.4,12-7.7
	c0.2-0.1,0.3,0,0.3,0.2c0.1,1.6,0.3,3.3,0.6,4.9C170.3,47.1,172.4,52.5,175.4,57.4L175.4,57.4z M175,57.4c-0.8-1.4-1.6-2.7-2.2-4.1
	c-2.3-4.9-3.8-10.1-4.3-15.4c-0.3,0.7-0.7,1.4-1.1,2.1c-2.9,5.7-6.1,11.3-9.6,16.7c-3.5,5.4-7.4,10.5-11.8,15.2
	c-4.2,4.6-8.8,8.9-13.8,12.7c-4.9,3.7-10.3,6.9-15.9,9.5c-5.2,2.4-10.7,4.1-16.3,5.3c4,1.1,8,2.4,11.8,3.9c4.2,1.7,8.3,3.6,12.2,5.8
	l3,1.8c0.9,0.5,2,1.5,3,1.2s1.5-1.2,2-1.9c0.4-0.8,0.9-1.6,1.5-2.4c4.3-6.2,11.1-10.4,18.6-11.5c-1.5-3.6-2.2-7.6-2.1-11.5
	c0.1-7,2.9-13.7,7.7-18.8C162.4,61.3,168.4,58.2,175,57.4L175,57.4z M168.5,37.8c-0.1-0.3-0.1-0.6-0.1-0.9c-1.9,1.7-4,3.3-6.2,4.7
	c-4.1,2.5-8.7,4.2-13.5,4.9c-4.7,0.8-9.4,0.6-14.1-0.5c0.6,3.3,0.5,6.7-0.2,10c-1.2,6-4.5,11.8-9.5,15.4c-2.4,1.9-5.3,3.1-8.4,3.3
	c-2.8,0.2-5.6-0.5-7.9-2.2c0.2,2.1,0.2,4.1,0,6.2c-0.7,6.9-3.6,13.4-8.2,18.6h0.1c0,0.1,0,0.2-0.1,0.2c-0.3,0.2-0.6,0.5-0.7,0.9
	l-0.4,0.6l1.5-0.3c6-1.2,11.9-3.3,17.4-6c5.5-2.7,10.8-6.1,15.6-9.9c4.9-3.9,9.5-8.2,13.6-13c4.2-4.8,8-10,11.4-15.4
	c3.4-5.4,6.5-11,9.3-16.8c0-0.1,0.2-0.1,0.2-0.1C168.5,37.6,168.5,37.7,168.5,37.8L168.5,37.8L168.5,37.8z"/>
<path class="st3" d="M172.7,53.3c0.7,1.4,1.4,2.7,2.2,4.1c-6.5,0.8-12.6,3.8-17.2,8.5c-4.8,5.1-7.6,11.8-7.7,18.8
	c-0.1,3.9,0.6,7.9,2.1,11.5c-7.5,1.1-14.2,5.3-18.6,11.5c-0.5,0.8-1,1.6-1.5,2.4c-0.5,0.7-1.1,1.6-2,1.9s-2.1-0.7-3-1.2l-3-1.8
	c-4-2.2-8-4.1-12.2-5.8c-3.9-1.6-7.8-2.9-11.8-3.9c5.6-1.1,11.1-2.9,16.3-5.3c5.6-2.6,11-5.7,15.9-9.5c5-3.8,9.6-8,13.8-12.7
	c4.3-4.7,8.3-9.8,11.8-15.1c3.5-5.4,6.7-10.9,9.6-16.7c0.3-0.7,0.7-1.4,1.1-2.1C169,43.3,170.4,48.5,172.7,53.3z"/>
<path class="st2" d="M168.4,36.9c0,0.3,0,0.6,0.1,0.9c0-0.1,0-0.2-0.1-0.2s-0.2,0-0.2,0.1c-2.8,5.8-5.9,11.4-9.3,16.8
	c-3.4,5.4-7.2,10.5-11.4,15.4c-4.1,4.7-8.6,9.1-13.6,13c-4.9,3.8-10.1,7.1-15.6,9.9c-5.5,2.7-11.4,4.8-17.4,6L99.4,99l0.4-0.6
	c0.2-0.4,0.4-0.7,0.7-0.9c0.1-0.1,0.1-0.2,0.1-0.2h-0.1c4.6-5.2,7.5-11.7,8.2-18.6c0.2-2.1,0.2-4.1,0-6.2c2.3,1.7,5.1,2.5,7.9,2.2
	c3.1-0.2,6-1.4,8.4-3.3c4.9-3.6,8.2-9.4,9.5-15.4c0.7-3.3,0.8-6.7,0.2-10c4.6,1.1,9.4,1.3,14.1,0.5c4.8-0.8,9.3-2.4,13.5-4.9
	C164.4,40.3,166.5,38.7,168.4,36.9L168.4,36.9z M24.1,76.7c0,0.1,0.1,0.2,0.2,0.2c3-0.4,6-0.2,9,0.6c5.3,1.3,9.9,4.5,13,9
	c3.3,4.8,4.7,10.7,3.8,16.4c0,0.2,0.1,0.2,0.2,0.2c3.6-0.4,7.2,0.1,10.6,1.4c2.9,1.2,5.6,2.9,7.8,5.2c0.9,1,2.2,2.1,3.5,1
	c0.7-0.6,1.4-1.2,2-1.9l2.1-2c5.1-4.7,10.8-8.8,16.8-12.2h0.3c0.1-0.1,0.1-0.2,0-0.2l-0.8-0.6c-0.2-0.3-0.5-0.5-0.8-0.7l-2.8-2.3
	c-4.7-4.1-7.7-9.8-8.6-15.9c0-0.2-0.2-0.2-0.2-0.1c-1.7,2.2-4.3,3.5-7.1,3.6c-4.9,0.4-9.6-2.4-12.8-5.9c-3.4-3.6-5.4-8.3-5.8-13.2
	c0-0.1-0.1-0.2-0.2-0.1c-1.9,1-4,1.8-6.1,2.4c-3.8,1-7.7,1.2-11.6,0.7c-3.9-0.5-7.6-1.7-11-3.7c-0.2-0.1-0.2,0-0.2,0.2
	c0.2,1.3,0.4,2.7,0.5,4C26,67.5,25.5,72.2,24.1,76.7z M24.4,76.6c0.4-1.2,0.7-2.4,1-3.7c0.8-4.3,0.9-8.7,0.2-13.1l1.3,1.5
	c3.4,4,7.1,7.8,10.9,11.3c3.8,3.5,8,6.7,12.3,9.6c4.3,2.8,8.8,5.2,13.5,7.2c4.7,2,9.5,3.4,14.5,4.3c4.6,0.8,9.3,1.1,14,0.9
	c-2.9,1.7-5.8,3.5-8.5,5.5c-3,2.2-5.8,4.6-8.5,7.1l-2.1,2c-0.6,0.7-1.2,1.6-2.1,1.6c-0.8-0.1-1.5-0.5-2-1.1
	c-0.5-0.6-1.1-1.1-1.6-1.6c-4.7-4.1-10.8-6-17-5.3c0.5-3.2,0.3-6.4-0.6-9.5c-1.5-5.6-5.1-10.4-10-13.4
	C35.1,77.1,29.7,75.9,24.4,76.6z M25.6,59.7c-0.1-0.2-0.1-0.5-0.2-0.7c1.8,1.1,3.8,1.9,5.8,2.5C35.1,62.6,39,63,43,62.7
	c3.9-0.3,7.6-1.4,11.1-3.2c0.2,2.7,0.9,5.4,2.1,7.9c2.2,4.6,5.9,8.3,10.6,10.3c2.3,1,4.8,1.4,7.3,0.9c2.3-0.4,4.3-1.5,5.8-3.3
	c0.3,1.7,0.7,3.3,1.2,4.8c2,5.3,5.6,9.9,10.3,13.1h-0.1c0,0.1,0.1,0.2,0.1,0.2c0.3,0.1,0.6,0.3,0.8,0.6l0.4,0.3h-1.2
	c-5,0.2-10.1-0.2-15-1.3c-4.9-1-9.7-2.5-14.3-4.6c-4.7-2.1-9.2-4.6-13.4-7.5c-4.3-3-8.4-6.3-12.2-9.9c-3.8-3.6-7.3-7.4-10.7-11.3
	C25.8,59.6,25.7,59.6,25.6,59.7C25.7,59.7,25.6,59.7,25.6,59.7z"/>
<path class="st3" d="M25.4,72.9c-0.3,1.3-0.6,2.5-1,3.7c5.3-0.6,10.7,0.5,15.3,3.4c4.9,3,8.5,7.8,10,13.4c0.8,3.1,1,6.3,0.6,9.5
	c6.2-0.7,12.3,1.3,17,5.3c0.6,0.5,1.1,1,1.6,1.6c0.5,0.6,1.2,1,2,1.1c0.9,0.1,1.6-0.9,2.1-1.6l2.1-2c2.7-2.5,5.6-4.9,8.5-7.1
	c2.7-2,5.6-3.8,8.5-5.5c-4.7,0.2-9.4-0.1-14-0.9c-5-0.9-9.9-2.3-14.5-4.3c-4.7-2-9.2-4.4-13.5-7.2c-4.4-2.9-8.5-6.1-12.3-9.6
	C34,69.1,30.4,65.3,27,61.4l-1.3-1.5C26.3,64.2,26.2,68.6,25.4,72.9L25.4,72.9z"/>
<path class="st2" d="M25.5,59c0.1,0.2,0.1,0.5,0.2,0.7c0-0.1,0.1-0.1,0.2-0.1c0,0,0,0,0,0c3.3,4,6.9,7.8,10.7,11.3
	c3.8,3.6,7.9,6.9,12.2,9.9c4.2,2.9,8.7,5.4,13.4,7.5c4.6,2.1,9.4,3.7,14.3,4.7c4.9,1.1,10,1.5,15,1.3h1.2l-0.4-0.3
	c-0.2-0.3-0.5-0.5-0.8-0.6c0-0.1-0.1-0.2-0.1-0.2h0.1c-4.7-3.2-8.3-7.7-10.3-13.1c-0.6-1.6-1-3.2-1.2-4.8c-1.5,1.7-3.6,2.9-5.8,3.3
	c-2.5,0.4-5,0.1-7.3-0.9c-4.7-2-8.5-5.7-10.6-10.4c-1.2-2.5-2-5.1-2.1-7.9c-3.4,1.8-7.2,2.9-11.1,3.2c-3.9,0.3-7.9-0.1-11.7-1.2
	C29.3,60.9,27.3,60.1,25.5,59z M110.9,175.1c-0.1,0-0.2-0.1-0.2-0.2c0.5-3.1,0.4-6.3-0.3-9.4c-2.8-11.9-14.2-19.7-26.3-18.2
	c-0.1,0-0.2-0.1-0.2-0.2l0,0c0.5-3.7,0.1-7.5-1.2-11c-1.2-3.1-2.9-5.9-5.3-8.3c-1.1-1-2.1-2.4-1-3.8c1.2-1.4,1.4-1.3,2.1-2
	c0.8-0.7,1.5-1.4,2.1-2.1c5.1-5.2,9.5-11,13.1-17.3v-0.4h0.1c0-0.1,0.2-0.1,0.2,0.1c0.1,0.3,0.3,0.6,0.6,0.8
	c0.3,0.2,0.5,0.6,0.6,0.9c1,1.2,2.1,2.5,2.4,3c4.2,5,10.1,8.3,16.5,9.4c0.2,0,0.2,0.2,0.1,0.3c-2.3,1.7-3.8,4.4-3.9,7.2
	c-0.6,5.2,2.3,10.2,5.9,13.6c3.7,3.5,8.5,5.7,13.6,6.2c0.2,0,0.2,0.1,0.2,0.2c-1.2,2-2,4.1-2.6,6.3c-1.1,3.9-1.5,8-1.1,12.1
	c0.4,4.1,1.7,8.1,3.6,11.7c0.1,0.1-0.1,0.2-0.2,0.2C123.6,173.2,117.1,173.5,110.9,175.1z M111.1,174.7c1.3-0.4,2.6-0.6,3.9-0.8
	c4.5-0.8,9.1-0.8,13.6,0h-0.1l-1.5-1.4c-4.1-3.7-8-7.6-11.6-11.8c-3.6-4.1-6.9-8.5-9.8-13.1c-2.8-4.5-5.3-9.3-7.2-14.3
	c-1.9-4.9-3.3-10.1-4.2-15.3c-0.7-4.8-0.9-9.7-0.6-14.6c-1.8,3-3.8,6-5.9,8.8c-2.4,3.1-4.9,6-7.6,8.7l-2.2,2.1
	c-0.6,0.6-1.6,1.3-1.6,2.3c0.1,0.8,0.5,1.5,1.1,2l1.6,1.7c4.1,5,6,11.5,5.2,18c3.3-0.4,6.7-0.1,9.9,0.8c5.8,1.8,10.7,5.6,13.8,10.8
	C110.8,163.5,111.9,169.2,111.1,174.7L111.1,174.7z M128.8,173.9l0.7,0.2c-1-2-1.8-4-2.5-6.1c-1.1-4-1.4-8.2-1-12.3
	c0.5-4,1.7-7.9,3.6-11.5c-2.9-0.2-5.7-1.1-8.2-2.4c-4.7-2.4-8.4-6.4-10.5-11.3c-1-2.5-1.2-5.1-0.7-7.7c0.5-2.4,1.8-4.5,3.6-6
	c-1.7-0.3-3.4-0.8-5-1.4c-5.6-2.1-10.3-6-13.5-11h-0.1c-0.1,0.1-0.2,0-0.2-0.1c-0.2-0.3-0.4-0.6-0.6-0.8l-0.4-0.4
	c0,0.4,0,0.9-0.1,1.3c-0.3,5.3,0,10.5,1,15.7c1,5.2,2.5,10.3,4.6,15.1c2.1,4.9,4.6,9.7,7.6,14.1c3,4.5,6.4,8.9,10,12.9
	c3.7,4.1,7.6,7.9,11.7,11.5C128.9,173.7,128.9,173.8,128.8,173.9C128.8,173.9,128.8,173.9,128.8,173.9L128.8,173.9z"/>
<path class="st3" d="M115,173.9c-1.3,0.2-2.6,0.5-3.9,0.8c0.8-5.5-0.3-11.2-3.1-16c-3.1-5.2-8-9-13.8-10.8c-3.2-0.9-6.6-1.2-9.9-0.8
	c0.8-6.5-1.1-13-5.2-18l-1.6-1.7c-0.6-0.5-1-1.2-1.1-2c0-1,1.1-1.7,1.6-2.3l2.2-2.1c2.7-2.7,5.3-5.7,7.6-8.7
	c2.1-2.8,4.1-5.7,5.9-8.8c-0.3,4.9-0.1,9.8,0.6,14.6c0.9,5.2,2.3,10.3,4.2,15.3c2,5,4.4,9.8,7.2,14.3c2.9,4.6,6.2,9,9.8,13.1
	c3.6,4.2,7.5,8.1,11.6,11.8l1.5,1.4h0.1C124.2,173.1,119.6,173.1,115,173.9L115,173.9z"/>
<path class="st2" d="M129.5,174l-0.7-0.2c0.1,0,0.1-0.1,0.1-0.2c0,0,0,0,0,0c-4.1-3.6-8-7.4-11.7-11.5c-3.7-4-7-8.4-10-12.9
	c-3-4.5-5.5-9.2-7.6-14.1c-2.1-4.9-3.6-9.9-4.6-15.1c-1-5.2-1.3-10.4-1-15.7c0.1-0.4,0.1-0.9,0.1-1.3l0.4,0.4
	c0.2,0.3,0.4,0.5,0.6,0.8c0,0.1,0.1,0.2,0.2,0.1h0.1c3.2,5,7.9,8.9,13.5,11c1.6,0.6,3.3,1.1,5,1.4c-1.9,1.5-3.1,3.6-3.6,6
	c-0.5,2.6-0.2,5.3,0.7,7.7c2.1,4.9,5.8,8.9,10.5,11.3c2.6,1.3,5.3,2.1,8.2,2.4c-1.9,3.6-3.2,7.5-3.6,11.5c-0.4,4.1-0.1,8.3,1,12.3
	C127.7,170.1,128.5,172.1,129.5,174L129.5,174z"/>
<circle class="st4" cx="87" cy="97.6" r="9.8"/>
<circle class="st5" cx="88.5" cy="98.1" r="8.3"/>
<circle class="st4" cx="95.3" cy="105.8" r="9.8"/>
<circle class="st5" cx="96.8" cy="106.3" r="8.3"/>
<circle class="st4" cx="101.7" cy="93.3" r="7.2"/>
<circle class="st5" cx="102.9" cy="93.7" r="6.2"/>
</svg>
